<svg width="1200" height="720" viewBox="0 0 1200 720" fill="none" xmlns="http://www.w3.org/2000/svg">
  <defs>
    <linearGradient id="bg" x1="0" y1="0" x2="1200" y2="720" gradientUnits="userSpaceOnUse">
      <stop stop-color="#0B2444" stop-opacity="0.06"/>
      <stop offset="1" stop-color="#CAA430" stop-opacity="0.06"/>
    </linearGradient>
    <linearGradient id="navy" x1="0" y1="0" x2="1" y2="1">
      <stop stop-color="#0B2444"/>
      <stop offset="1" stop-color="#0B2444" stop-opacity="0.88"/>
    </linearGradient>
  </defs>

  <rect x="40" y="40" width="1120" height="640" rx="28" fill="url(#bg)" stroke="#0B2444" stroke-opacity="0.10"/>

  <!-- Top bar -->
  <rect x="70" y="70" width="1060" height="70" rx="16" fill="#FFFFFF" stroke="#0B2444" stroke-opacity="0.10"/>
  <circle cx="110" cy="105" r="10" fill="#0B2444" fill-opacity="0.20"/>
  <circle cx="145" cy="105" r="10" fill="#0B2444" fill-opacity="0.20"/>
  <circle cx="180" cy="105" r="10" fill="#0B2444" fill-opacity="0.20"/>

  <rect x="760" y="90" width="340" height="30" rx="15" fill="#0B2444" fill-opacity="0.06" stroke="#0B2444" stroke-opacity="0.10"/>

  <!-- Left sidebar -->
  <rect x="70" y="160" width="260" height="490" rx="18" fill="#FFFFFF" stroke="#0B2444" stroke-opacity="0.10"/>
  <rect x="100" y="200" width="200" height="22" rx="11" fill="#0B2444" fill-opacity="0.10"/>
  <rect x="100" y="240" width="160" height="18" rx="9" fill="#0B2444" fill-opacity="0.08"/>
  <rect x="100" y="275" width="190" height="18" rx="9" fill="#0B2444" fill-opacity="0.08"/>
  <rect x="100" y="310" width="150" height="18" rx="9" fill="#0B2444" fill-opacity="0.08"/>
  <rect x="100" y="345" width="175" height="18" rx="9" fill="#0B2444" fill-opacity="0.08"/>

  <!-- Main cards -->
  <rect x="350" y="160" width="780" height="220" rx="18" fill="#FFFFFF" stroke="#0B2444" stroke-opacity="0.10"/>
  <rect x="380" y="195" width="220" height="20" rx="10" fill="#0B2444" fill-opacity="0.10"/>
  <rect x="380" y="230" width="680" height="14" rx="7" fill="#0B2444" fill-opacity="0.06"/>
  <rect x="380" y="255" width="640" height="14" rx="7" fill="#0B2444" fill-opacity="0.06"/>
  <rect x="380" y="280" width="600" height="14" rx="7" fill="#0B2444" fill-opacity="0.06"/>

  <!-- Chart -->
  <rect x="380" y="312" width="700" height="48" rx="14" fill="#0B2444" fill-opacity="0.05" stroke="#0B2444" stroke-opacity="0.08"/>
  <rect x="400" y="328" width="170" height="16" rx="8" fill="url(#navy)" opacity="0.85"/>
  <rect x="580" y="328" width="120" height="16" rx="8" fill="#CAA430" opacity="0.85"/>
  <rect x="710" y="328" width="250" height="16" rx="8" fill="#0B2444" opacity="0.18"/>

  <!-- Lower grid -->
  <rect x="350" y="400" width="380" height="250" rx="18" fill="#FFFFFF" stroke="#0B2444" stroke-opacity="0.10"/>
  <rect x="760" y="400" width="370" height="250" rx="18" fill="#FFFFFF" stroke="#0B2444" stroke-opacity="0.10"/>

  <rect x="380" y="435" width="220" height="20" rx="10" fill="#0B2444" fill-opacity="0.10"/>
  <rect x="790" y="435" width="220" height="20" rx="10" fill="#0B2444" fill-opacity="0.10"/>

  <!-- Table lines -->
  <rect x="380" y="475" width="320" height="14" rx="7" fill="#0B2444" fill-opacity="0.06"/>
  <rect x="380" y="505" width="290" height="14" rx="7" fill="#0B2444" fill-opacity="0.06"/>
  <rect x="380" y="535" width="310" height="14" rx="7" fill="#0B2444" fill-opacity="0.06"/>
  <rect x="380" y="565" width="280" height="14" rx="7" fill="#0B2444" fill-opacity="0.06"/>

  <!-- Right highlights -->
  <circle cx="830" cy="520" r="70" fill="#CAA430" fill-opacity="0.14"/>
  <circle cx="930" cy="540" r="58" fill="#0B2444" fill-opacity="0.10"/>
  <circle cx="1010" cy="505" r="46" fill="#0B2444" fill-opacity="0.06"/>

  <text x="80" y="685" font-family="Inter, Arial" font-size="14" fill="#0B2444" fill-opacity="0.55">
    Placeholder illustration — replace with your real product screenshot when ready.
  </text>
</svg>
