<?xml version="1.0" encoding="UTF-8"?>
<svg id="Layer_1" data-name="Layer 1" xmlns="http://www.w3.org/2000/svg" viewBox="0 0 2000 2000">
  <defs>
    <style>
      .cls-1 {
        fill: #c9a227;
      }

      .cls-2 {
        fill: #0c1f3a;
      }
    </style>
  </defs>
  <path class="cls-1" d="M1800.35,1181.04c7.07,217.63-124.95,416.64-328.51,500.15,159.6-135.59,203.98-369.32,74.27-539.49-88.62-116.2-242.41-170.17-377.51-212.1-105-32.55-233.66-73.85-279.23-186.27,184.17-17.78,375.48-41.86,554.61.91,206.78,49.42,349.44,223.72,356.37,436.8Z"/>
  <path class="cls-2" d="M1466.38,251.3l224.42,21c-23.31,138.95-111.44,243.18-261.38,223.37-136.5-17.92-271.18-28.35-407.89-13.58-66.36,7.14-128.45,22.68-180.81,59.78-71.75,50.82-97.51,134.47-64.75,216.3,81.76,204.19,469.91,206.43,650.51,396.62,135.31,142.38,111.23,345.31-25.06,472.01-143.71,133.7-363.37,187.53-556.08,182.56-117.25-2.94-230.51-18.62-339.85-67.9,187.74,31.01,446.95-19.32,568.26-183.89,75.81-102.76,71.47-235.48-8.12-334.67-37.31-46.55-83.65-80.57-133.49-113.89l-122.78-82.11c-55.86-37.38-105.42-82.11-145.81-134.26-116.48-150.22-92.26-353.29,53.06-474.18,75.11-62.51,161.07-103.46,257.74-129.22,161.28-42.91,325.29-53.55,492.03-37.94Z"/>
  <path class="cls-2" d="M928.36,1439.06c53.83-13.72,97.16-38.29,133.63-78.12-6.72,205.45-203.49,298.06-380.94,321.16-112.49,14.56-223.65-5.46-319.2-66.78-152.46-97.79-178.78-268.66-154.63-429.87,127.82,260.68,476.42,315.98,721.14,253.61Z"/>
  <path class="cls-2" d="M500.94,979.51c5.6,127.54,31.22,256.83,141.61,329.42-117.11-9.03-228.55-61.32-304.92-149.38-88.48-102.2-109.55-226.38-110.32-357.98-.63-122.71,1.61-241.85,8.68-363.37,7.7-132.16,135.66-230.58,258.65-246.75,18.69-2.45,37.87-.77,53.48,3.92-26.11,40.11-41.37,77.56-41.72,124.18l-2.94,329.98-2.52,329.98Z"/>
</svg>