<?xml version="1.0" encoding="UTF-8"?>
<svg id="Layer_1" data-name="Layer 1" xmlns="http://www.w3.org/2000/svg" viewBox="0 0 3000 1000">
  <defs>
    <style>
      .cls-1 {
        stroke: #0b1f3b;
        stroke-miterlimit: 10;
      }

      .cls-1, .cls-2 {
        fill: #0b1f3b;
      }

      .cls-3 {
        fill: #fff;
      }

      .cls-2 {
        font-family: Inter-Bold, Inter;
        font-size: 480px;
        font-variation-settings: 'opsz' 14, 'wght' 700;
        font-weight: 700;
      }

      .cls-4 {
        fill: #1f2937;
        font-family: Inter-Medium, Inter;
        font-size: 140px;
        font-variation-settings: 'opsz' 14, 'wght' 500;
        font-weight: 500;
      }

      .cls-5 {
        letter-spacing: .04em;
      }

      .cls-6 {
        letter-spacing: -.01em;
      }

      .cls-7 {
        letter-spacing: 0em;
      }

      .cls-8 {
        letter-spacing: .1em;
      }

      .cls-9 {
        fill: #c9a227;
      }

      .cls-10 {
        letter-spacing: 0em;
      }
    </style>
  </defs>
  <rect class="cls-1" x="100.41" y="125" width="750" height="750" rx="162.31" ry="162.31"/>
  <g>
    <path class="cls-9" d="M541.96,472.2c-41.42-12.85-92.23-29.15-110.22-73.53,72.7-7.02,148.22-16.52,218.92.36,81.62,19.51,137.94,88.34,140.67,172.42,2.79,85.91-49.29,164.49-129.65,197.43,62.97-53.49,80.49-145.78,29.29-212.96-34.98-45.87-95.69-67.17-149.02-83.72Z"/>
    <path class="cls-3" d="M643.75,561.09c53.41,56.2,43.91,136.31-9.89,186.35-56.73,52.75-143.44,74-219.51,72.06-46.28-1.19-90.99-7.38-134.15-26.83,74.11,12.24,176.43-7.63,224.31-72.59,29.92-40.56,28.21-92.95-3.21-132.11-14.73-18.38-33.02-31.8-52.69-44.96l-48.47-32.41c-22.05-14.73-41.61-32.41-57.56-53-45.98-59.3-36.42-139.46,20.94-187.18,29.65-24.67,63.58-40.84,101.74-50.98,63.66-16.94,128.4-21.14,194.22-15l88.59,8.29c-9.2,54.85-43.99,95.99-103.18,88.2-53.85-7.1-107.04-11.22-161.01-5.39-26.19,2.82-50.7,8.95-71.37,23.6-28.32,20.06-38.49,53.08-25.56,85.38,32.3,80.6,185.49,81.49,256.78,156.56Z"/>
    <path class="cls-3" d="M499.88,642.47c-2.65,81.1-80.33,117.68-150.37,126.77-44.4,5.78-88.28-2.16-126-26.36-60.18-38.6-70.57-106.05-61.04-169.69,50.46,102.93,188.06,124.76,284.66,100.11,21.25-5.42,38.35-15.11,52.75-30.84Z"/>
    <path class="cls-3" d="M279.4,361.65l-.97,130.28c2.18,50.34,12.3,101.35,55.87,130.01-46.23-3.56-90.22-24.21-120.34-58.97-34.95-40.31-43.27-89.33-43.58-141.31-.25-48.41.64-95.44,3.43-143.44,3.07-52.17,53.55-91.02,102.1-97.4,7.38-.97,14.95-.3,21.11,1.55-10.31,15.86-16.3,30.62-16.47,49.05l-1.16,130.23Z"/>
  </g>
  <text class="cls-2" transform="translate(917.11 578.17)"><tspan class="cls-10" x="0" y="0">I</tspan><tspan class="cls-6" x="137.17" y="0">S</tspan><tspan class="cls-7" x="446.6" y="0">ANIK</tspan></text>
  <text class="cls-4" transform="translate(940.66 777.38)"><tspan class="cls-8" x="0" y="0">SOFT</tspan><tspan class="cls-5" x="427.67" y="0">W</tspan><tspan class="cls-8" x="573.47" y="0">ARE SOLUTIONS</tspan></text>
</svg>