<?xml version="1.0" encoding="UTF-8"?>
<svg id="Layer_1" data-name="Layer 1" xmlns="http://www.w3.org/2000/svg" viewBox="0 0 2000 2000">
  <defs>
    <style>
      .cls-1 {
        stroke: #0b1f3b;
        stroke-miterlimit: 10;
      }

      .cls-1, .cls-2 {
        fill: #0b1f3b;
      }

      .cls-3 {
        fill: #fff;
      }

      .cls-2 {
        font-family: Inter-Bold, Inter;
        font-size: 480px;
        font-variation-settings: 'opsz' 14, 'wght' 700;
        font-weight: 700;
      }

      .cls-4 {
        fill: #1f2937;
        font-family: Inter-Medium, Inter;
        font-size: 140px;
        font-variation-settings: 'opsz' 14, 'wght' 500;
        font-weight: 500;
      }

      .cls-5 {
        letter-spacing: .04em;
      }

      .cls-6 {
        letter-spacing: -.01em;
      }

      .cls-7 {
        letter-spacing: 0em;
      }

      .cls-8 {
        letter-spacing: .1em;
      }

      .cls-9 {
        fill: #c9a227;
      }

      .cls-10 {
        letter-spacing: 0em;
      }
    </style>
  </defs>
  <rect class="cls-1" x="593.52" y="259.36" width="800" height="800" rx="162.31" ry="162.31"/>
  <g>
    <path class="cls-9" d="M1330.5,735.6c2.98,91.63-52.58,175.43-138.29,210.59,67.17-57.09,85.89-155.5,31.24-227.15-37.28-48.93-102.07-71.68-158.95-89.31-44.18-13.71-98.38-31.09-117.57-78.43,77.55-7.49,158.1-17.65,233.55.38,87.04,20.81,147.1,94.2,150.02,183.92Z"/>
    <path class="cls-3" d="M1173.11,724.54c56.94,59.95,46.8,145.36-10.58,198.74-60.51,56.27-153,78.93-234.11,76.87-49.37-1.24-97.09-7.84-143.12-28.62,79.05,13.09,188.22-8.13,239.27-77.4,31.92-43.27,30.09-99.15-3.42-140.91-15.71-19.6-35.22-33.92-56.21-47.95l-51.7-34.57c-23.52-15.74-44.39-34.6-61.39-56.53-49.04-63.25-38.85-148.75,22.34-199.65,31.63-26.35,67.82-43.56,108.52-54.41,67.91-18.07,136.96-22.55,207.17-15.97l94.49,8.84c-9.79,58.48-46.92,102.36-110.05,94.05-57.44-7.55-114.15-11.94-171.74-5.75-27.94,3.04-54.05,9.58-76.13,25.2-30.18,21.4-41.06,56.62-27.23,91.04,34.43,86,197.83,86.95,273.9,167.03Z"/>
    <path class="cls-3" d="M659.71,737.45c53.85,109.76,200.6,133.04,303.67,106.75,22.64-5.75,40.88-16.09,56.27-32.86-2.86,86.51-85.71,125.5-160.43,135.2-47.36,6.16-94.17-2.27-134.4-28.09-64.19-41.2-75.28-113.12-65.11-181Z"/>
    <path class="cls-3" d="M714.65,726.52c-37.28-43-46.16-95.29-46.48-150.7-.27-51.67.68-101.83,3.65-153,3.27-55.65,57.15-97.09,108.91-103.89,7.87-1.06,15.95-.35,22.52,1.65-10.99,16.89-17.39,32.66-17.57,52.29l-1.24,138.94-1.03,138.94c2.33,53.7,13.15,108.14,59.6,138.7-49.31-3.8-96.23-25.82-128.36-62.93Z"/>
  </g>
  <text class="cls-2" transform="translate(164.56 1505.68)"><tspan class="cls-10" x="0" y="0">I</tspan><tspan class="cls-6" x="137.17" y="0">S</tspan><tspan class="cls-7" x="446.6" y="0">ANIK</tspan></text>
  <text class="cls-4" transform="translate(66.53 1695.52)"><tspan class="cls-8" x="0" y="0">SOFT</tspan><tspan class="cls-5" x="427.67" y="0">W</tspan><tspan class="cls-8" x="573.47" y="0">ARE SOLUTIONS</tspan></text>
</svg>